# xmcd CD database file
#
# Track frame offsets:
#	150
#	30227
#	52953
#	82094
#	106770
#	138045
#	166173
#	191634
#	227261
#	259357
#	283940
#	288816
#
# Disc length: 4371 seconds
#
# Revision: 0
# Processed by: cddbd v1.5.2PL0 Copyright (c) Steve Scherf et al.
# Submitted via: CDex 1.70beta2
#
DISCID=9711110c
DTITLE=WildCards - Wild Men's Greengrass Blues
DYEAR=2011
DGENRE=Blues
TTITLE0=Hey good lookin
TTITLE1=Hemmige
TTITLE2=All night long blues
TTITLE3=Diddy wah Diddy
TTITLE4=More than I can do
TTITLE5=Dust down a country road
TTITLE6=Don't tell nobody
TTITLE7=Honey bee
TTITLE8=One kiss
TTITLE9=Zydeco jump
TTITLE10=About blues
TTITLE11=Thrill is gone
EXTD=YEAR: 2011
EXTT0=
EXTT1=
EXTT2=
EXTT3=
EXTT4=
EXTT5=
EXTT6=
EXTT7=
EXTT8=
EXTT9=
EXTT10=
EXTT11=
PLAYORDER=
